<svg xmlns="http://www.w3.org/2000/svg" viewBox="0 0 512 512" width="100%" height="100%">
  <defs>
    <!-- Background Gradient -->
    <linearGradient id="bgGrad" x1="0%" y1="0%" x2="100%" y2="100%">
      <stop offset="0%" stop-color="#0f172a"/>
      <stop offset="50%" stop-color="#020617"/>
      <stop offset="100%" stop-color="#030712"/>
    </linearGradient>

    <!-- Bezel Ring Gradient -->
    <linearGradient id="bezelGrad" x1="0%" y1="0%" x2="100%" y2="100%">
      <stop offset="0%" stop-color="#22d3ee"/>
      <stop offset="50%" stop-color="#0891b2"/>
      <stop offset="100%" stop-color="#0e7490"/>
    </linearGradient>

    <!-- Glowing Dial Radial -->
    <radialGradient id="dialGlow" cx="50%" cy="50%" r="50%">
      <stop offset="0%" stop-color="#0891b2" stop-opacity="0.25"/>
      <stop offset="65%" stop-color="#06b6d4" stop-opacity="0.08"/>
      <stop offset="100%" stop-color="#020617" stop-opacity="0"/>
    </radialGradient>

    <!-- Hand Gradient -->
    <linearGradient id="handGrad" x1="0%" y1="0%" x2="0%" y2="100%">
      <stop offset="0%" stop-color="#ffffff"/>
      <stop offset="100%" stop-color="#67e8f9"/>
    </linearGradient>

    <!-- Math Badge Gradient -->
    <linearGradient id="calcGrad" x1="0%" y1="0%" x2="100%" y2="100%">
      <stop offset="0%" stop-color="#06b6d4"/>
      <stop offset="100%" stop-color="#0284c7"/>
    </linearGradient>

    <!-- Drop Shadow Filter -->
    <filter id="glow" x="-20%" y="-20%" width="140%" height="140%">
      <feGaussianBlur stdDeviation="8" result="blur"/>
      <feComposite in="SourceGraphic" in2="blur" operator="over"/>
    </filter>
  </defs>

  <!-- Base Icon Background (Squircle for standalone / app store) -->
  <rect width="512" height="512" rx="112" fill="url(#bgGrad)"/>
  
  <!-- Subtle Outer Border -->
  <rect width="504" height="504" x="4" y="4" rx="108" fill="none" stroke="#1e293b" stroke-width="4"/>

  <!-- Dial Background Glow -->
  <circle cx="256" cy="256" r="190" fill="url(#dialGlow)"/>

  <!-- Outer Bezel Ring -->
  <circle cx="256" cy="256" r="182" fill="none" stroke="url(#bezelGrad)" stroke-width="12" stroke-opacity="0.9" filter="url(#glow)"/>

  <!-- Inner Subtle Ring -->
  <circle cx="256" cy="256" r="162" fill="none" stroke="#334155" stroke-width="3" stroke-dasharray="4 8"/>

  <!-- Hour Markers -->
  <!-- 12 o'clock (Top) -->
  <line x1="256" y1="96" x2="256" y2="124" stroke="#38bdf8" stroke-width="8" stroke-linecap="round"/>
  <!-- 3 o'clock (Right) -->
  <line x1="416" y1="256" x2="388" y2="256" stroke="#38bdf8" stroke-width="8" stroke-linecap="round"/>
  <!-- 6 o'clock (Bottom) -->
  <line x1="256" y1="416" x2="256" y2="388" stroke="#38bdf8" stroke-width="8" stroke-linecap="round"/>
  <!-- 9 o'clock (Left) -->
  <line x1="96" y1="256" x2="124" y2="256" stroke="#38bdf8" stroke-width="8" stroke-linecap="round"/>

  <!-- Intermediate Ticks -->
  <g stroke="#64748b" stroke-width="4" stroke-linecap="round" opacity="0.8">
    <!-- 1 o'clock (30 deg) -->
    <line x1="336" y1="117" x2="324" y2="138"/>
    <!-- 2 o'clock (60 deg) -->
    <line x1="395" y1="176" x2="374" y2="188"/>
    <!-- 4 o'clock (120 deg) -->
    <line x1="395" y1="336" x2="374" y2="324"/>
    <!-- 5 o'clock (150 deg) -->
    <line x1="336" y1="395" x2="324" y2="374"/>
    <!-- 7 o'clock (210 deg) -->
    <line x1="176" y1="395" x2="188" y2="374"/>
    <!-- 8 o'clock (240 deg) -->
    <line x1="117" y1="336" x2="138" y2="324"/>
    <!-- 10 o'clock (300 deg) -->
    <line x1="117" y1="176" x2="138" y2="188"/>
    <!-- 11 o'clock (330 deg) -->
    <line x1="176" y1="117" x2="188" y2="138"/>
  </g>

  <!-- Clock Hands (Displaying ~06:27 / precision time math) -->
  <!-- Hour Hand (Pointing downward-left toward ~6) -->
  <g transform="rotate(194 256 256)">
    <line x1="256" y1="256" x2="256" y2="160" stroke="#0ea5e9" stroke-width="14" stroke-linecap="round" filter="url(#glow)"/>
    <line x1="256" y1="256" x2="256" y2="160" stroke="#e0f2fe" stroke-width="8" stroke-linecap="round"/>
  </g>

  <!-- Minute Hand (Pointing toward ~27m, near bottom) -->
  <g transform="rotate(162 256 256)">
    <line x1="256" y1="256" x2="256" y2="120" stroke="#06b6d4" stroke-width="10" stroke-linecap="round" filter="url(#glow)"/>
    <line x1="256" y1="256" x2="256" y2="120" stroke="#ffffff" stroke-width="6" stroke-linecap="round"/>
  </g>

  <!-- Math Operator Badges in quadrants: [+] and [-] -->
  <g opacity="0.95">
    <!-- Plus Badge on top right -->
    <circle cx="340" cy="172" r="26" fill="#0369a1" stroke="#38bdf8" stroke-width="3"/>
    <line x1="340" y1="158" x2="340" y2="186" stroke="#ffffff" stroke-width="4.5" stroke-linecap="round"/>
    <line x1="326" y1="172" x2="354" y2="172" stroke="#ffffff" stroke-width="4.5" stroke-linecap="round"/>

    <!-- Minus Badge on top left -->
    <circle cx="172" cy="172" r="26" fill="#0f172a" stroke="#0284c7" stroke-width="3"/>
    <line x1="158" y1="172" x2="186" y2="172" stroke="#38bdf8" stroke-width="4.5" stroke-linecap="round"/>
  </g>

  <!-- Center Pin (Metallic Cyan) -->
  <circle cx="256" cy="256" r="16" fill="#0891b2" stroke="#22d3ee" stroke-width="4"/>
  <circle cx="256" cy="256" r="7" fill="#ffffff"/>
</svg>